<svg width="40" height="40" viewBox="0 0 40 40" fill="none" xmlns="http://www.w3.org/2000/svg">
<path fill-rule="evenodd" clip-rule="evenodd" d="M17.4796 6.31282C19.1205 4.67187 21.3461 3.75 23.6667 3.75H28.1667C28.8571 3.75 29.4167 4.30964 29.4167 5V11C29.4167 11.6904 28.8571 12.25 28.1667 12.25H23.6667C23.6004 12.25 23.5369 12.2763 23.49 12.3232C23.4431 12.3701 23.4167 12.4337 23.4167 12.5V15.75H28.1667C28.5517 15.75 28.9151 15.9273 29.152 16.2307C29.3889 16.5341 29.4728 16.9297 29.3794 17.3032L27.8794 23.3032C27.7403 23.8596 27.2403 24.25 26.6667 24.25H23.4167V35C23.4167 35.6904 22.8571 36.25 22.1667 36.25H16.1667C15.4764 36.25 14.9167 35.6904 14.9167 35V24.25H11.6667C10.9764 24.25 10.4167 23.6904 10.4167 23V17C10.4167 16.3096 10.9764 15.75 11.6667 15.75H14.9167V12.5C14.9167 10.1794 15.8386 7.95376 17.4796 6.31282ZM23.6667 6.25C22.0091 6.25 20.4194 6.90848 19.2473 8.08058C18.0752 9.25268 17.4167 10.8424 17.4167 12.5V17C17.4167 17.6904 16.8571 18.25 16.1667 18.25H12.9167V21.75H16.1667C16.8571 21.75 17.4167 22.3096 17.4167 23V33.75H20.9167V23C20.9167 22.3096 21.4764 21.75 22.1667 21.75H25.6908L26.5658 18.25H22.1667C21.4764 18.25 20.9167 17.6904 20.9167 17V12.5C20.9167 11.7707 21.2065 11.0712 21.7222 10.5555C22.2379 10.0397 22.9374 9.75 23.6667 9.75H26.9167V6.25H23.6667Z" fill="white"/>
</svg>
