<svg width="40" height="40" viewBox="0 0 40 40" fill="none" xmlns="http://www.w3.org/2000/svg">
<path fill-rule="evenodd" clip-rule="evenodd" d="M25.0358 5.57242C25.8831 5.42728 26.832 5.37882 27.7249 5.52989C29.3197 5.79969 30.7927 6.54091 31.9572 7.65217C32.7183 7.66939 33.4664 7.51943 34.1283 7.30566C34.6884 7.12475 35.1616 6.90629 35.4932 6.73356C35.6581 6.64768 35.7854 6.57442 35.8683 6.52482C35.9096 6.50006 35.9396 6.48131 35.9575 6.47L35.9733 6.45989C36.468 6.13035 37.1267 6.19449 37.5482 6.61366C37.9698 7.03294 38.0377 7.69114 37.7105 8.18764C37.3644 8.71313 36.8838 9.64992 36.3453 10.6995C36.2607 10.8645 36.1746 11.0324 36.0874 11.2018C35.7785 11.8018 35.4619 12.4081 35.1668 12.9283C34.9814 13.255 34.7832 13.5866 34.5834 13.8732V14.3295C34.5961 16.0055 34.4038 17.6728 34.0137 19.2949C33.7682 20.3154 33.4444 21.3181 33.044 22.2937C32.0067 24.8215 30.476 27.1172 28.5415 29.0468C26.6069 30.9764 24.3073 32.5012 21.7768 33.532C19.2487 34.562 16.5408 35.0783 13.811 35.051C9.85382 35.0544 5.97988 33.9143 2.65534 31.7677C2.16568 31.4516 1.95951 30.839 2.1584 30.2911C2.3573 29.7432 2.90845 29.4055 3.48691 29.4771C3.98751 29.539 4.49153 29.5693 4.99595 29.5676C6.80836 29.5625 8.58626 29.1621 10.2094 28.4077C9.69345 28.1728 9.20089 27.8832 8.74063 27.542C7.38777 26.5388 6.38126 25.1389 5.86114 23.537C5.72599 23.1207 5.81838 22.6641 6.10474 22.3331C6.10987 22.3272 6.11505 22.3213 6.12027 22.3155C5.81439 22.0427 5.52818 21.7458 5.26469 21.4264C4.07916 19.9894 3.42636 18.187 3.41673 16.3241L3.41669 16.3176L3.41671 16.2343C3.41671 15.7912 3.6513 15.3812 4.0333 15.1567C4.13014 15.0997 4.23278 15.0569 4.33836 15.0282C3.77447 13.903 3.48124 12.6606 3.48338 11.4002C3.48271 9.97224 3.8557 8.56896 4.56531 7.32979C4.77016 6.97206 5.13821 6.73833 5.54909 6.70504C5.95997 6.67175 6.36085 6.84317 6.62062 7.16325C8.22488 9.13993 10.227 10.757 12.497 11.9095C13.6639 12.5019 14.8881 12.9647 16.1478 13.2921C16.854 13.4757 17.5714 13.6166 18.296 13.714C18.2641 12.5086 18.5021 11.3038 19.0017 10.1906C19.7345 8.55755 20.9886 7.21392 22.5673 6.37044C23.2359 6.01322 24.1234 5.7287 25.0358 5.57242ZM6.23884 18.1516C6.45491 18.7597 6.77636 19.3303 7.19312 19.8354C8.01199 20.828 9.14857 21.5073 10.4106 21.7583C10.9727 21.8701 11.3868 22.35 11.4152 22.9224C11.4436 23.4949 11.079 24.0133 10.5306 24.1801C10.0765 24.3183 9.61119 24.4146 9.14059 24.4681C9.45156 24.869 9.81736 25.2281 10.2297 25.5338C11.165 26.2274 12.2933 26.6121 13.4574 26.6345C13.9856 26.6447 14.4504 26.9858 14.6185 27.4867C14.7865 27.9875 14.6215 28.54 14.2063 28.8666C12.4577 30.2425 10.4357 31.202 8.29315 31.6918C10.069 32.2605 11.9314 32.5533 13.8152 32.551L13.8297 32.5509C16.2298 32.5759 18.6108 32.1224 20.8336 31.2168C23.0565 30.3112 25.0766 28.9718 26.776 27.2768C28.4754 25.5817 29.82 23.5651 30.7312 21.3446C31.083 20.4875 31.3674 19.6067 31.583 18.7102C31.9261 17.2839 32.0949 15.8178 32.0834 14.3441L32.0834 14.3343V13.451C32.0834 13.1479 32.1935 12.8551 32.3933 12.6271C32.5087 12.4954 32.7107 12.1912 32.9924 11.6947C33.2601 11.2228 33.5564 10.6563 33.8646 10.0576C33.8832 10.0214 33.9019 9.98503 33.9207 9.94847C33.1214 10.122 32.2154 10.213 31.2657 10.1104C30.965 10.0779 30.6862 9.9374 30.4811 9.715C29.643 8.80611 28.5269 8.2011 27.3079 7.99486C26.767 7.90335 26.1131 7.9243 25.4579 8.03653C24.746 8.15846 24.1265 8.37182 23.7454 8.57544C22.655 9.15806 21.7887 10.0861 21.2826 11.2141C20.7764 12.3421 20.6589 13.6062 20.9486 14.8081C21.0409 15.1913 20.9471 15.5956 20.6955 15.899C20.4439 16.2023 20.0639 16.3693 19.6702 16.3494C18.2645 16.2783 16.8737 16.0638 15.5189 15.7117C14.0858 15.3392 12.6929 14.8127 11.3653 14.1386C9.41064 13.1463 7.63055 11.8511 6.08915 10.305C6.01883 10.6643 5.98313 11.031 5.98338 11.4001L5.98338 11.4033C5.98163 12.3212 6.20688 13.2252 6.63907 14.035C7.07125 14.8447 7.69695 15.5351 8.46047 16.0445C8.92384 16.3536 9.12673 16.9321 8.95797 17.463C8.78921 17.9938 8.28955 18.349 7.73271 18.3338C7.22839 18.3201 6.72828 18.2588 6.23884 18.1516Z" fill="white"/>
</svg>
