<svg width="36" height="26" viewBox="0 0 36 26" fill="none" xmlns="http://www.w3.org/2000/svg">
<path fill-rule="evenodd" clip-rule="evenodd" d="M35.4375 13C35.4375 12.068 34.682 11.3125 33.75 11.3125H2.25C1.31802 11.3125 0.5625 12.068 0.5625 13C0.5625 13.932 1.31802 14.6875 2.25 14.6875H33.75C34.682 14.6875 35.4375 13.932 35.4375 13Z" fill="white"/>
<path fill-rule="evenodd" clip-rule="evenodd" d="M35.4375 1.75C35.4375 0.818019 34.682 0.0625 33.75 0.0625H2.25C1.31802 0.0625 0.5625 0.818019 0.5625 1.75C0.5625 2.68198 1.31802 3.4375 2.25 3.4375H33.75C34.682 3.4375 35.4375 2.68198 35.4375 1.75Z" fill="white"/>
<path fill-rule="evenodd" clip-rule="evenodd" d="M35.4375 24.25C35.4375 23.318 34.682 22.5625 33.75 22.5625H2.25C1.31802 22.5625 0.5625 23.318 0.5625 24.25C0.5625 25.182 1.31802 25.9375 2.25 25.9375H33.75C34.682 25.9375 35.4375 25.182 35.4375 24.25Z" fill="white"/>
</svg>
