<svg width="40" height="40" viewBox="0 0 40 40" fill="none" xmlns="http://www.w3.org/2000/svg">
<path d="M26.6666 11.6667C26.6666 10.7462 27.4128 10 28.3333 10C29.2538 10 30 10.7462 30 11.6667C30 12.5872 29.2538 13.3334 28.3333 13.3334C27.4128 13.3334 26.6666 12.5872 26.6666 11.6667Z" fill="white"/>
<path fill-rule="evenodd" clip-rule="evenodd" d="M20 12.0834C15.6277 12.0834 12.0833 15.6278 12.0833 20C12.0833 24.3723 15.6277 27.9167 20 27.9167C24.3722 27.9167 27.9166 24.3723 27.9166 20C27.9166 15.6278 24.3722 12.0834 20 12.0834ZM14.5833 20C14.5833 17.0085 17.0084 14.5834 20 14.5834C22.9915 14.5834 25.4166 17.0085 25.4166 20C25.4166 22.9916 22.9915 25.4167 20 25.4167C17.0084 25.4167 14.5833 22.9916 14.5833 20Z" fill="white"/>
<path fill-rule="evenodd" clip-rule="evenodd" d="M28.7637 4.72173C22.9861 4.07599 17.0139 4.07599 11.2363 4.72173C7.88283 5.09652 5.17561 7.73821 4.78136 11.1091C4.09046 17.0163 4.09046 22.9838 4.78136 28.891C5.17561 32.2619 7.88284 34.9035 11.2363 35.2783C17.0139 35.9241 22.9861 35.9241 28.7637 35.2783C32.1172 34.9035 34.8244 32.2619 35.2186 28.891C35.9095 22.9838 35.9095 17.0163 35.2186 11.1091C34.8244 7.73821 32.1172 5.09652 28.7637 4.72173ZM11.5139 7.20626C17.107 6.58115 22.893 6.58115 28.4861 7.20626C30.7029 7.45402 32.4787 9.20338 32.7356 11.3995C33.4039 17.1137 33.4039 22.8864 32.7356 28.6006C32.4787 30.7967 30.7029 32.546 28.4861 32.7938C22.893 33.4189 17.107 33.4189 11.5139 32.7938C9.2971 32.546 7.52129 30.7967 7.26443 28.6006C6.5961 22.8864 6.5961 17.1137 7.26443 11.3995C7.52129 9.20338 9.2971 7.45402 11.5139 7.20626Z" fill="white"/>
</svg>
