<svg width="402" height="75" viewBox="0 0 402 75" fill="none" xmlns="http://www.w3.org/2000/svg">
<path fill-rule="evenodd" clip-rule="evenodd" d="M44.4375 41C44.4375 40.068 43.682 39.3125 42.75 39.3125H11.25C10.318 39.3125 9.5625 40.068 9.5625 41C9.5625 41.932 10.318 42.6875 11.25 42.6875H42.75C43.682 42.6875 44.4375 41.932 44.4375 41Z" fill="white"/>
<path fill-rule="evenodd" clip-rule="evenodd" d="M44.4375 29.75C44.4375 28.818 43.682 28.0625 42.75 28.0625H11.25C10.318 28.0625 9.5625 28.818 9.5625 29.75C9.5625 30.682 10.318 31.4375 11.25 31.4375H42.75C43.682 31.4375 44.4375 30.682 44.4375 29.75Z" fill="white"/>
<path fill-rule="evenodd" clip-rule="evenodd" d="M44.4375 52.25C44.4375 51.318 43.682 50.5625 42.75 50.5625H11.25C10.318 50.5625 9.5625 51.318 9.5625 52.25C9.5625 53.182 10.318 53.9375 11.25 53.9375H42.75C43.682 53.9375 44.4375 53.182 44.4375 52.25Z" fill="white"/>
<path d="M130.604 58.944V65.856C130.34 65.928 129.92 66 129.344 66.072C128.792 66.144 128.24 66.18 127.688 66.18C127.136 66.18 126.644 66.132 126.212 66.036C125.804 65.964 125.456 65.82 125.168 65.604C124.904 65.388 124.7 65.088 124.556 64.704C124.412 64.32 124.34 63.816 124.34 63.192V46.236C124.34 45.732 124.472 45.348 124.736 45.084C125.024 44.796 125.408 44.568 125.888 44.4C126.704 44.112 127.652 43.908 128.732 43.788C129.812 43.644 130.964 43.572 132.188 43.572C135.5 43.572 137.996 44.268 139.676 45.66C141.356 47.052 142.196 48.936 142.196 51.312C142.196 52.8 141.812 54.072 141.044 55.128C140.276 56.184 139.364 57 138.308 57.576C139.172 58.752 140.024 59.856 140.864 60.888C141.704 61.92 142.364 62.856 142.844 63.696C142.604 64.536 142.16 65.184 141.512 65.64C140.888 66.072 140.18 66.288 139.388 66.288C138.86 66.288 138.404 66.228 138.02 66.108C137.636 65.988 137.3 65.82 137.012 65.604C136.724 65.388 136.46 65.124 136.22 64.812C135.98 64.5 135.752 64.164 135.536 63.804L132.512 58.944H130.604ZM132.872 54.156C133.784 54.156 134.504 53.928 135.032 53.472C135.56 52.992 135.824 52.296 135.824 51.384C135.824 50.472 135.524 49.788 134.924 49.332C134.348 48.852 133.424 48.612 132.152 48.612C131.792 48.612 131.504 48.624 131.288 48.648C131.072 48.672 130.832 48.708 130.568 48.756V54.156H132.872ZM154.534 66.576C153.118 66.576 151.798 66.384 150.574 66C149.374 65.592 148.318 64.992 147.406 64.2C146.518 63.408 145.81 62.412 145.282 61.212C144.778 60.012 144.526 58.608 144.526 57C144.526 55.416 144.778 54.06 145.282 52.932C145.81 51.78 146.494 50.844 147.334 50.124C148.174 49.38 149.134 48.84 150.214 48.504C151.294 48.144 152.398 47.964 153.526 47.964C154.798 47.964 155.95 48.156 156.982 48.54C158.038 48.924 158.938 49.452 159.682 50.124C160.45 50.796 161.038 51.6 161.446 52.536C161.878 53.472 162.094 54.492 162.094 55.596C162.094 56.412 161.866 57.036 161.41 57.468C160.954 57.9 160.318 58.176 159.502 58.296L150.61 59.628C150.874 60.42 151.414 61.02 152.23 61.428C153.046 61.812 153.982 62.004 155.038 62.004C156.022 62.004 156.946 61.884 157.81 61.644C158.698 61.38 159.418 61.08 159.97 60.744C160.354 60.984 160.678 61.32 160.942 61.752C161.206 62.184 161.338 62.64 161.338 63.12C161.338 64.2 160.834 65.004 159.826 65.532C159.058 65.94 158.194 66.216 157.234 66.36C156.274 66.504 155.374 66.576 154.534 66.576ZM153.526 52.428C152.95 52.428 152.446 52.524 152.014 52.716C151.606 52.908 151.27 53.16 151.006 53.472C150.742 53.76 150.538 54.096 150.394 54.48C150.274 54.84 150.202 55.212 150.178 55.596L156.334 54.588C156.262 54.108 155.998 53.628 155.542 53.148C155.086 52.668 154.414 52.428 153.526 52.428ZM164.284 57.252C164.284 55.668 164.524 54.3 165.004 53.148C165.484 51.972 166.144 51 166.984 50.232C167.848 49.464 168.844 48.9 169.972 48.54C171.124 48.156 172.36 47.964 173.68 47.964C174.16 47.964 174.628 48.012 175.084 48.108C175.54 48.18 175.912 48.276 176.2 48.396V42.564C176.44 42.492 176.824 42.42 177.352 42.348C177.88 42.252 178.42 42.204 178.972 42.204C179.5 42.204 179.968 42.24 180.376 42.312C180.808 42.384 181.168 42.528 181.456 42.744C181.744 42.96 181.96 43.26 182.104 43.644C182.248 44.004 182.32 44.484 182.32 45.084V62.148C182.32 63.276 181.792 64.176 180.736 64.848C180.04 65.304 179.14 65.7 178.036 66.036C176.932 66.396 175.66 66.576 174.22 66.576C172.66 66.576 171.256 66.36 170.008 65.928C168.784 65.496 167.74 64.872 166.876 64.056C166.036 63.24 165.388 62.268 164.932 61.14C164.5 59.988 164.284 58.692 164.284 57.252ZM174.508 52.752C173.212 52.752 172.216 53.124 171.52 53.868C170.824 54.612 170.476 55.74 170.476 57.252C170.476 58.74 170.8 59.868 171.448 60.636C172.096 61.38 173.032 61.752 174.256 61.752C174.688 61.752 175.072 61.692 175.408 61.572C175.768 61.428 176.044 61.272 176.236 61.104V53.184C175.756 52.896 175.18 52.752 174.508 52.752ZM204.242 57.252C204.242 58.74 204.014 60.072 203.558 61.248C203.102 62.4 202.454 63.372 201.614 64.164C200.798 64.956 199.814 65.556 198.662 65.964C197.51 66.372 196.226 66.576 194.81 66.576C193.394 66.576 192.11 66.36 190.958 65.928C189.806 65.496 188.81 64.884 187.97 64.092C187.154 63.276 186.518 62.292 186.062 61.14C185.606 59.988 185.378 58.692 185.378 57.252C185.378 55.836 185.606 54.552 186.062 53.4C186.518 52.248 187.154 51.276 187.97 50.484C188.81 49.668 189.806 49.044 190.958 48.612C192.11 48.18 193.394 47.964 194.81 47.964C196.226 47.964 197.51 48.192 198.662 48.648C199.814 49.08 200.798 49.704 201.614 50.52C202.454 51.312 203.102 52.284 203.558 53.436C204.014 54.588 204.242 55.86 204.242 57.252ZM191.642 57.252C191.642 58.716 191.918 59.844 192.47 60.636C193.046 61.404 193.838 61.788 194.846 61.788C195.854 61.788 196.622 61.392 197.15 60.6C197.702 59.808 197.978 58.692 197.978 57.252C197.978 55.812 197.702 54.708 197.15 53.94C196.598 53.148 195.818 52.752 194.81 52.752C193.802 52.752 193.022 53.148 192.47 53.94C191.918 54.708 191.642 55.812 191.642 57.252ZM218.315 54.912C218.315 54.168 218.099 53.628 217.667 53.292C217.259 52.932 216.695 52.752 215.975 52.752C215.495 52.752 215.015 52.812 214.535 52.932C214.079 53.052 213.683 53.232 213.347 53.472V65.964C213.107 66.036 212.723 66.108 212.195 66.18C211.691 66.252 211.163 66.288 210.611 66.288C210.083 66.288 209.603 66.252 209.171 66.18C208.763 66.108 208.415 65.964 208.127 65.748C207.839 65.532 207.611 65.244 207.443 64.884C207.299 64.5 207.227 64.008 207.227 63.408V52.608C207.227 51.96 207.359 51.432 207.623 51.024C207.911 50.616 208.295 50.244 208.775 49.908C209.591 49.332 210.611 48.864 211.835 48.504C213.083 48.144 214.463 47.964 215.975 47.964C218.687 47.964 220.775 48.564 222.239 49.764C223.703 50.94 224.435 52.584 224.435 54.696V65.964C224.195 66.036 223.811 66.108 223.283 66.18C222.779 66.252 222.251 66.288 221.699 66.288C221.171 66.288 220.691 66.252 220.259 66.18C219.851 66.108 219.503 65.964 219.215 65.748C218.927 65.532 218.699 65.244 218.531 64.884C218.387 64.5 218.315 64.008 218.315 63.408V54.912ZM227.46 57.252C227.46 55.668 227.7 54.3 228.18 53.148C228.66 51.972 229.32 51 230.16 50.232C231.024 49.464 232.02 48.9 233.148 48.54C234.3 48.156 235.536 47.964 236.856 47.964C237.336 47.964 237.804 48.012 238.26 48.108C238.716 48.18 239.088 48.276 239.376 48.396V42.564C239.616 42.492 240 42.42 240.528 42.348C241.056 42.252 241.596 42.204 242.148 42.204C242.676 42.204 243.144 42.24 243.552 42.312C243.984 42.384 244.344 42.528 244.632 42.744C244.92 42.96 245.136 43.26 245.28 43.644C245.424 44.004 245.496 44.484 245.496 45.084V62.148C245.496 63.276 244.968 64.176 243.912 64.848C243.216 65.304 242.316 65.7 241.212 66.036C240.108 66.396 238.836 66.576 237.396 66.576C235.836 66.576 234.432 66.36 233.184 65.928C231.96 65.496 230.916 64.872 230.052 64.056C229.212 63.24 228.564 62.268 228.108 61.14C227.676 59.988 227.46 58.692 227.46 57.252ZM237.684 52.752C236.388 52.752 235.392 53.124 234.696 53.868C234 54.612 233.652 55.74 233.652 57.252C233.652 58.74 233.976 59.868 234.624 60.636C235.272 61.38 236.208 61.752 237.432 61.752C237.864 61.752 238.248 61.692 238.584 61.572C238.944 61.428 239.22 61.272 239.412 61.104V53.184C238.932 52.896 238.356 52.752 237.684 52.752ZM267.418 57.252C267.418 58.74 267.19 60.072 266.734 61.248C266.278 62.4 265.63 63.372 264.79 64.164C263.974 64.956 262.99 65.556 261.838 65.964C260.686 66.372 259.402 66.576 257.986 66.576C256.57 66.576 255.286 66.36 254.134 65.928C252.982 65.496 251.986 64.884 251.146 64.092C250.33 63.276 249.694 62.292 249.238 61.14C248.782 59.988 248.554 58.692 248.554 57.252C248.554 55.836 248.782 54.552 249.238 53.4C249.694 52.248 250.33 51.276 251.146 50.484C251.986 49.668 252.982 49.044 254.134 48.612C255.286 48.18 256.57 47.964 257.986 47.964C259.402 47.964 260.686 48.192 261.838 48.648C262.99 49.08 263.974 49.704 264.79 50.52C265.63 51.312 266.278 52.284 266.734 53.436C267.19 54.588 267.418 55.86 267.418 57.252ZM254.818 57.252C254.818 58.716 255.094 59.844 255.646 60.636C256.222 61.404 257.014 61.788 258.021 61.788C259.03 61.788 259.798 61.392 260.326 60.6C260.878 59.808 261.154 58.692 261.154 57.252C261.154 55.812 260.878 54.708 260.326 53.94C259.774 53.148 258.994 52.752 257.986 52.752C256.978 52.752 256.198 53.148 255.646 53.94C255.094 54.708 254.818 55.812 254.818 57.252ZM270.871 47.532C270.871 46.5 271.171 45.684 271.771 45.084C272.371 44.484 273.187 44.184 274.219 44.184H286.099C286.267 44.448 286.411 44.796 286.531 45.228C286.675 45.66 286.747 46.116 286.747 46.596C286.747 47.508 286.543 48.156 286.135 48.54C285.751 48.924 285.235 49.116 284.587 49.116H276.991V52.464H285.091C285.259 52.728 285.403 53.076 285.523 53.508C285.667 53.916 285.739 54.36 285.739 54.84C285.739 55.752 285.547 56.4 285.163 56.784C284.779 57.168 284.263 57.36 283.615 57.36H276.991V61.14H286.243C286.411 61.404 286.555 61.752 286.675 62.184C286.819 62.616 286.891 63.072 286.891 63.552C286.891 64.464 286.687 65.124 286.279 65.532C285.895 65.916 285.379 66.108 284.731 66.108H274.219C273.187 66.108 272.371 65.808 271.771 65.208C271.171 64.608 270.871 63.792 270.871 62.76V47.532ZM304.886 60.78C304.886 62.604 304.202 64.032 302.834 65.064C301.466 66.096 299.45 66.612 296.786 66.612C295.778 66.612 294.842 66.54 293.978 66.396C293.114 66.252 292.37 66.036 291.746 65.748C291.146 65.436 290.666 65.052 290.306 64.596C289.97 64.14 289.802 63.6 289.802 62.976C289.802 62.4 289.922 61.92 290.162 61.536C290.402 61.128 290.69 60.792 291.026 60.528C291.722 60.912 292.514 61.26 293.402 61.572C294.314 61.86 295.358 62.004 296.534 62.004C297.278 62.004 297.842 61.896 298.226 61.68C298.634 61.464 298.838 61.176 298.838 60.816C298.838 60.48 298.694 60.216 298.406 60.024C298.118 59.832 297.638 59.676 296.966 59.556L295.886 59.34C293.798 58.932 292.238 58.296 291.206 57.432C290.198 56.544 289.694 55.284 289.694 53.652C289.694 52.764 289.886 51.96 290.27 51.24C290.654 50.52 291.194 49.92 291.89 49.44C292.586 48.96 293.414 48.588 294.374 48.324C295.358 48.06 296.438 47.928 297.614 47.928C298.502 47.928 299.33 48 300.098 48.144C300.89 48.264 301.574 48.456 302.15 48.72C302.726 48.984 303.182 49.332 303.518 49.764C303.854 50.172 304.022 50.664 304.022 51.24C304.022 51.792 303.914 52.272 303.698 52.68C303.506 53.064 303.254 53.388 302.942 53.652C302.75 53.532 302.462 53.412 302.078 53.292C301.694 53.148 301.274 53.028 300.818 52.932C300.362 52.812 299.894 52.716 299.414 52.644C298.958 52.572 298.538 52.536 298.154 52.536C297.362 52.536 296.75 52.632 296.318 52.824C295.886 52.992 295.67 53.268 295.67 53.652C295.67 53.916 295.79 54.132 296.03 54.3C296.27 54.468 296.726 54.624 297.398 54.768L298.514 55.02C300.818 55.548 302.45 56.28 303.41 57.216C304.394 58.128 304.886 59.316 304.886 60.78ZM315.873 47.964C317.313 47.964 318.645 48.156 319.869 48.54C321.117 48.9 322.185 49.464 323.073 50.232C323.961 51 324.657 51.972 325.161 53.148C325.665 54.3 325.917 55.68 325.917 57.288C325.917 58.824 325.701 60.168 325.269 61.32C324.837 62.472 324.225 63.444 323.433 64.236C322.641 65.004 321.681 65.58 320.553 65.964C319.449 66.348 318.213 66.54 316.845 66.54C315.813 66.54 314.853 66.384 313.965 66.072V72.048C313.725 72.12 313.341 72.192 312.813 72.264C312.285 72.36 311.745 72.408 311.193 72.408C310.665 72.408 310.185 72.372 309.753 72.3C309.345 72.228 308.997 72.084 308.709 71.868C308.421 71.652 308.205 71.352 308.061 70.968C307.917 70.608 307.845 70.128 307.845 69.528V52.248C307.845 51.6 307.977 51.072 308.241 50.664C308.529 50.256 308.913 49.884 309.393 49.548C310.137 49.068 311.061 48.684 312.165 48.396C313.269 48.108 314.505 47.964 315.873 47.964ZM315.945 61.716C318.417 61.716 319.653 60.24 319.653 57.288C319.653 55.752 319.341 54.612 318.717 53.868C318.117 53.124 317.241 52.752 316.089 52.752C315.633 52.752 315.225 52.812 314.865 52.932C314.505 53.028 314.193 53.148 313.929 53.292V61.212C314.217 61.356 314.529 61.476 314.865 61.572C315.201 61.668 315.561 61.716 315.945 61.716ZM347.011 57.252C347.011 58.74 346.783 60.072 346.327 61.248C345.871 62.4 345.223 63.372 344.383 64.164C343.567 64.956 342.583 65.556 341.431 65.964C340.279 66.372 338.995 66.576 337.579 66.576C336.163 66.576 334.879 66.36 333.727 65.928C332.575 65.496 331.579 64.884 330.739 64.092C329.923 63.276 329.287 62.292 328.831 61.14C328.375 59.988 328.147 58.692 328.147 57.252C328.147 55.836 328.375 54.552 328.831 53.4C329.287 52.248 329.923 51.276 330.739 50.484C331.579 49.668 332.575 49.044 333.727 48.612C334.879 48.18 336.163 47.964 337.579 47.964C338.995 47.964 340.279 48.192 341.431 48.648C342.583 49.08 343.567 49.704 344.383 50.52C345.223 51.312 345.871 52.284 346.327 53.436C346.783 54.588 347.011 55.86 347.011 57.252ZM334.411 57.252C334.411 58.716 334.687 59.844 335.239 60.636C335.815 61.404 336.607 61.788 337.615 61.788C338.623 61.788 339.391 61.392 339.919 60.6C340.471 59.808 340.747 58.692 340.747 57.252C340.747 55.812 340.471 54.708 339.919 53.94C339.367 53.148 338.587 52.752 337.579 52.752C336.571 52.752 335.791 53.148 335.239 53.94C334.687 54.708 334.411 55.812 334.411 57.252ZM356.117 65.964C355.877 66.036 355.493 66.108 354.965 66.18C354.461 66.252 353.933 66.288 353.381 66.288C352.853 66.288 352.373 66.252 351.941 66.18C351.533 66.108 351.185 65.964 350.897 65.748C350.609 65.532 350.381 65.244 350.213 64.884C350.069 64.5 349.997 64.008 349.997 63.408V52.608C349.997 52.056 350.093 51.588 350.285 51.204C350.501 50.796 350.801 50.436 351.185 50.124C351.569 49.812 352.037 49.536 352.589 49.296C353.165 49.032 353.777 48.804 354.425 48.612C355.073 48.42 355.745 48.276 356.441 48.18C357.137 48.06 357.833 48 358.529 48C359.681 48 360.593 48.228 361.265 48.684C361.937 49.116 362.273 49.836 362.273 50.844C362.273 51.18 362.225 51.516 362.129 51.852C362.033 52.164 361.913 52.452 361.769 52.716C361.265 52.716 360.749 52.74 360.221 52.788C359.693 52.836 359.177 52.908 358.673 53.004C358.169 53.1 357.689 53.208 357.233 53.328C356.801 53.424 356.429 53.544 356.117 53.688V65.964ZM370.918 59.988C370.918 60.612 371.11 61.056 371.494 61.32C371.902 61.584 372.466 61.716 373.186 61.716C373.546 61.716 373.918 61.692 374.302 61.644C374.686 61.572 375.022 61.488 375.31 61.392C375.526 61.656 375.706 61.956 375.85 62.292C376.018 62.604 376.102 62.988 376.102 63.444C376.102 64.356 375.754 65.1 375.058 65.676C374.386 66.252 373.186 66.54 371.458 66.54C369.346 66.54 367.714 66.06 366.562 65.1C365.434 64.14 364.87 62.58 364.87 60.42V45.012C365.134 44.94 365.506 44.868 365.986 44.796C366.49 44.7 367.018 44.652 367.57 44.652C368.626 44.652 369.442 44.844 370.018 45.228C370.618 45.588 370.918 46.368 370.918 47.568V49.872H375.634C375.778 50.136 375.91 50.472 376.03 50.88C376.174 51.264 376.246 51.696 376.246 52.176C376.246 53.016 376.054 53.628 375.67 54.012C375.31 54.372 374.818 54.552 374.194 54.552H370.918V59.988ZM388.253 66.576C386.837 66.576 385.517 66.384 384.293 66C383.093 65.592 382.037 64.992 381.125 64.2C380.237 63.408 379.529 62.412 379.001 61.212C378.497 60.012 378.245 58.608 378.245 57C378.245 55.416 378.497 54.06 379.001 52.932C379.529 51.78 380.213 50.844 381.053 50.124C381.893 49.38 382.853 48.84 383.933 48.504C385.013 48.144 386.117 47.964 387.245 47.964C388.517 47.964 389.669 48.156 390.701 48.54C391.757 48.924 392.657 49.452 393.401 50.124C394.169 50.796 394.757 51.6 395.165 52.536C395.597 53.472 395.813 54.492 395.813 55.596C395.813 56.412 395.585 57.036 395.129 57.468C394.673 57.9 394.037 58.176 393.221 58.296L384.329 59.628C384.593 60.42 385.133 61.02 385.949 61.428C386.765 61.812 387.701 62.004 388.757 62.004C389.741 62.004 390.665 61.884 391.529 61.644C392.417 61.38 393.137 61.08 393.689 60.744C394.073 60.984 394.397 61.32 394.661 61.752C394.925 62.184 395.057 62.64 395.057 63.12C395.057 64.2 394.553 65.004 393.545 65.532C392.777 65.94 391.913 66.216 390.953 66.36C389.993 66.504 389.093 66.576 388.253 66.576ZM387.245 52.428C386.669 52.428 386.165 52.524 385.733 52.716C385.325 52.908 384.989 53.16 384.725 53.472C384.461 53.76 384.257 54.096 384.113 54.48C383.993 54.84 383.921 55.212 383.897 55.596L390.053 54.588C389.981 54.108 389.717 53.628 389.261 53.148C388.805 52.668 388.133 52.428 387.245 52.428Z" fill="white"/>
<g filter="url(#filter0_i_207_110)">
<g filter="url(#filter1_i_207_110)">
<ellipse cx="91.2007" cy="37.0403" rx="31.3172" ry="31.1915" transform="rotate(-0.062665 91.2007 37.0403)" fill="url(#paint0_linear_207_110)"/>
</g>
<g filter="url(#filter2_d_207_110)">
<path d="M91.9414 14.4826L91.9212 14.6663L91.8966 14.8894L91.8549 15.2279L91.8152 15.5496L91.7881 15.7696L91.7836 15.8064L91.7651 15.9569L91.549 17.7105L91.4047 18.8826L91.1918 20.6106L91.0252 21.9633L90.8284 23.5604L90.6379 25.1074L90.4464 26.662L90.2523 28.2378L90.0617 29.7849L89.8699 31.3422L89.677 32.9075L89.4865 34.4544L89.4104 35.2589L89.3342 36.0635C89.2773 36.3824 88.8674 36.482 88.669 36.2253L84.5191 30.8553C84.4123 30.717 84.2124 30.693 84.0759 30.8021L83.9255 30.9222C83.8604 30.9742 83.8042 31.0363 83.7589 31.1062C83.7137 31.176 83.6574 31.2381 83.5923 31.2901L83.5362 31.335C83.4735 31.385 83.4159 31.4411 83.3644 31.5025L83.181 31.7204L82.8455 32.1919L82.299 33.0354L81.7402 33.9905L81.5812 34.3347C81.2409 35.0715 80.9605 35.8342 80.7427 36.6157C80.5234 37.4023 80.3683 38.2052 80.2788 39.0168L80.1794 39.9174L80.1896 40.9321C80.2017 42.1376 80.3126 43.3402 80.5212 44.5279L81.1835 46.7458L81.2842 46.9937C81.4249 47.3401 81.5915 47.6754 81.7824 47.997L82.1567 48.7155L82.5931 49.3843L83.7275 50.9198L84.849 52.0588L86.198 53.1368C86.8256 53.6383 87.4957 54.0845 88.2007 54.4704L88.333 54.5428C88.9982 54.9069 89.6959 55.2086 90.417 55.4442C91.0792 55.6605 91.7587 55.8201 92.4481 55.9214L92.9183 55.9905L93.7646 56.0266L94.6285 55.9913C95.3043 55.9638 95.9768 55.8839 96.6401 55.7524C97.4422 55.5934 98.2275 55.3596 98.9855 55.054L100.16 54.5808C101.724 53.7372 103.222 52.7763 104.641 51.7064L104.798 51.5879L106.563 49.9743L107.089 49.3626C108.038 48.2581 108.904 47.0858 109.682 45.8552L110.402 44.4661L110.935 43.2259L111.394 41.6388L111.814 39.3699L111.998 37.1882L111.958 34.9819L111.644 32.181L111.193 30.0991L110.331 27.1254L109.219 24.3502L108.296 22.4425L106.986 19.9279L105.54 17.6242L104.505 16.2125L104.078 15.6398C103.898 15.3983 104.185 15.0871 104.442 15.2457L105.974 16.2602L107.444 17.3244L109.312 18.8839L110.795 20.3446L112.191 22.0782L113.55 24.1465L114.573 26.1781L115.335 28.0116L116.034 30.403L116.573 33.2284L116.775 35.5089L116.765 37.6533L116.557 40.0582L116.322 41.6699L115.84 43.9883L115.307 45.7367L114.265 48.5021L113.247 50.5362L112.266 52.2355L111.446 53.5009L110.315 55.0145L109.073 56.5158L108.116 57.4838L106.288 59.1471L104.386 60.4633L104.176 60.5855C102.743 61.4221 101.25 62.1537 99.7093 62.7746L97.4824 63.4343L95.6784 63.858L94.123 64.083L92.468 64.1842L90.3648 64.2364L88.7965 64.0648L86.7303 63.7823L84.8505 63.3508L83.2071 62.8322L81.2523 62.0538L79.3719 61.1141L77.2047 59.6913L75.1741 58.0577L73.33 56.275L71.4354 53.9223L70.4254 52.2874L69.5144 50.2681L68.9271 48.3972L68.5387 46.2657L68.3497 44.3819L68.3465 41.8409L68.6788 38.8284L69.2973 35.7909L69.9416 33.5465L70.7479 31.3764L71.6661 29.2185L72.5352 27.5069L73.4418 25.9688L73.9573 25.173C73.9758 25.1445 73.9739 25.1073 73.9526 25.0808C73.9433 25.0694 73.9311 25.0607 73.9172 25.0558L72.0833 24.4087L66.7822 22.5635C66.6184 22.5065 66.5814 22.2922 66.7167 22.1842L66.7789 22.1345L67.587 21.489L68.8801 20.5577L70.2853 19.6388L71.5661 18.8191L73.8545 17.6015L76.479 16.4207L79.365 15.4379L81.6417 14.8401L84.068 14.4281L86.0216 14.1902L86.9922 14.127L87.3905 14.1141L87.8741 14.1348L88.1248 14.138L88.3488 14.1625L88.6529 14.1527C88.7156 14.1506 88.7783 14.153 88.8406 14.1598C88.9274 14.1693 89.0148 14.1703 89.1018 14.1626L89.1142 14.1615C89.2093 14.1532 89.3051 14.1542 89.4001 14.1646L89.4813 14.1735L89.7054 14.198L90.1535 14.247L90.5309 14.2507L91.1118 14.2954L91.4478 14.3322L91.8563 14.3769C91.8817 14.3797 91.9049 14.3923 91.9209 14.4122C91.9368 14.432 91.9442 14.4573 91.9414 14.4826Z" fill="#F9FEF9"/>
<path d="M87.3905 14.1141L86.9922 14.127L86.0216 14.1902L84.068 14.4281L81.6417 14.8401L79.365 15.4379L76.479 16.4207L73.8545 17.6015L71.5661 18.8191L70.2853 19.6388L68.8801 20.5577L67.587 21.489L66.7789 22.1345L66.7167 22.1842V22.1842C66.5814 22.2922 66.6184 22.5065 66.7822 22.5635L72.0833 24.4087L73.9172 25.0558C73.9311 25.0607 73.9433 25.0694 73.9526 25.0808V25.0808C73.9739 25.1073 73.9758 25.1445 73.9573 25.173L73.4418 25.9688L72.5352 27.5069L71.6661 29.2185L70.7479 31.3764L69.9416 33.5465L69.2973 35.7909L68.6788 38.8284L68.3465 41.8409L68.3497 44.3819L68.5387 46.2657L68.9271 48.3972L69.5144 50.2681L70.4254 52.2874L71.4354 53.9223L73.33 56.275L75.1741 58.0577L77.2047 59.6913L79.3719 61.1141L81.2523 62.0538L83.2071 62.8322L84.8505 63.3508L86.7303 63.7823L88.7965 64.0648L90.3648 64.2364L92.468 64.1842L94.123 64.083L95.6784 63.858L97.4824 63.4343L99.7093 62.7746V62.7746C101.25 62.1537 102.743 61.4221 104.176 60.5855L104.386 60.4633L106.288 59.1471L108.116 57.4838L109.073 56.5158L110.315 55.0145L111.446 53.5009L112.266 52.2355L113.247 50.5362L114.265 48.5021L115.307 45.7367L115.84 43.9883L116.322 41.6698L116.557 40.0582L116.765 37.6533L116.775 35.5089L116.573 33.2284L116.034 30.403L115.335 28.0116L114.573 26.1781L113.55 24.1465L112.191 22.0782L110.795 20.3446L109.312 18.8839L107.444 17.3244L105.974 16.2602L104.442 15.2457V15.2457C104.185 15.0871 103.898 15.3983 104.078 15.6398L104.505 16.2125L105.54 17.6242L106.986 19.9279L108.296 22.4425L109.219 24.3502L110.331 27.1254L111.193 30.0991L111.644 32.181L111.958 34.9819L111.998 37.1882L111.814 39.3699L111.394 41.6388L110.935 43.2259L110.402 44.4661L109.682 45.8552V45.8552C108.904 47.0858 108.038 48.258 107.089 49.3626L106.563 49.9743L104.798 51.5879L104.641 51.7064C103.222 52.7763 101.724 53.7372 100.16 54.5808V54.5808L98.9855 55.054C98.2275 55.3596 97.4422 55.5934 96.6401 55.7524V55.7524C95.9768 55.8839 95.3043 55.9638 94.6285 55.9913L93.7646 56.0266L92.9183 55.9905L92.4481 55.9214C91.7587 55.8201 91.0792 55.6605 90.417 55.4442V55.4442C89.6959 55.2086 88.9982 54.9069 88.333 54.5428L88.2007 54.4704C87.4957 54.0845 86.8256 53.6383 86.198 53.1368L84.849 52.0588L83.7275 50.9198L82.5931 49.3843L82.1567 48.7155L81.7824 47.997V47.997C81.5915 47.6754 81.4249 47.3401 81.2842 46.9937L81.1835 46.7458L80.5212 44.5279V44.5279C80.3126 43.3402 80.2017 42.1376 80.1896 40.9321L80.1794 39.9174L80.2788 39.0168C80.3683 38.2053 80.5234 37.4023 80.7427 36.6157V36.6157C80.9605 35.8342 81.2409 35.0715 81.5812 34.3347L81.7402 33.9905L82.299 33.0354L82.8455 32.1919L83.181 31.7204L83.3644 31.5025C83.416 31.4411 83.4735 31.385 83.5362 31.335L83.5923 31.2901C83.6574 31.2381 83.7137 31.176 83.7589 31.1062V31.1062C83.8042 31.0363 83.8604 30.9742 83.9255 30.9222L84.0759 30.8021V30.8021C84.2124 30.693 84.4123 30.717 84.5191 30.8553L88.669 36.2253C88.8674 36.482 89.2773 36.3824 89.3342 36.0635V36.0635L89.4104 35.2589L89.4865 34.4544L89.677 32.9075L89.8699 31.3422L90.0617 29.7849L90.2523 28.2378L90.4464 26.662L90.6379 25.1074L90.8284 23.5604L91.0252 21.9633L91.1918 20.6106M87.3905 14.1141L87.8741 14.1348L88.1248 14.138L88.3488 14.1625M87.3905 14.1141L88.3488 14.1625M88.3488 14.1625L88.6529 14.1527C88.7156 14.1506 88.7783 14.153 88.8406 14.1598V14.1598C88.9274 14.1693 89.0148 14.1703 89.1018 14.1626L89.1142 14.1615C89.2093 14.1532 89.3051 14.1542 89.4001 14.1646L89.4813 14.1735L89.7054 14.198L90.1535 14.247L90.5309 14.2507L91.1118 14.2954L91.4478 14.3322L91.8563 14.3769C91.8817 14.3797 91.9049 14.3923 91.9209 14.4122V14.4122C91.9368 14.432 91.9442 14.4573 91.9414 14.4826L91.9212 14.6663L91.8966 14.8894L91.8549 15.2279L91.8152 15.5496L91.7881 15.7696L91.7836 15.8064L91.7651 15.9569L91.549 17.7105L91.4047 18.8826L91.1918 20.6106M91.2314 20.4061L91.1918 20.6106" stroke="#FEFEFE"/>
</g>
</g>
<defs>
<filter id="filter0_i_207_110" x="59.8835" y="5.84888" width="64.6344" height="66.3828" filterUnits="userSpaceOnUse" color-interpolation-filters="sRGB">
<feFlood flood-opacity="0" result="BackgroundImageFix"/>
<feBlend mode="normal" in="SourceGraphic" in2="BackgroundImageFix" result="shape"/>
<feColorMatrix in="SourceAlpha" type="matrix" values="0 0 0 0 0 0 0 0 0 0 0 0 0 0 0 0 0 0 127 0" result="hardAlpha"/>
<feOffset dx="2" dy="4"/>
<feGaussianBlur stdDeviation="2"/>
<feComposite in2="hardAlpha" operator="arithmetic" k2="-1" k3="1"/>
<feColorMatrix type="matrix" values="0 0 0 0 0 0 0 0 0 0 0 0 0 0 0 0 0 0 0.25 0"/>
<feBlend mode="normal" in2="shape" result="effect1_innerShadow_207_110"/>
</filter>
<filter id="filter1_i_207_110" x="59.8835" y="5.84888" width="62.6344" height="66.3828" filterUnits="userSpaceOnUse" color-interpolation-filters="sRGB">
<feFlood flood-opacity="0" result="BackgroundImageFix"/>
<feBlend mode="normal" in="SourceGraphic" in2="BackgroundImageFix" result="shape"/>
<feColorMatrix in="SourceAlpha" type="matrix" values="0 0 0 0 0 0 0 0 0 0 0 0 0 0 0 0 0 0 127 0" result="hardAlpha"/>
<feOffset dy="4"/>
<feGaussianBlur stdDeviation="2"/>
<feComposite in2="hardAlpha" operator="arithmetic" k2="-1" k3="1"/>
<feColorMatrix type="matrix" values="0 0 0 0 0 0 0 0 0 0 0 0 0 0 0 0 0 0 0.25 0"/>
<feBlend mode="normal" in2="shape" result="effect1_innerShadow_207_110"/>
</filter>
<filter id="filter2_d_207_110" x="62.1329" y="13.6147" width="59.1432" height="59.1213" filterUnits="userSpaceOnUse" color-interpolation-filters="sRGB">
<feFlood flood-opacity="0" result="BackgroundImageFix"/>
<feColorMatrix in="SourceAlpha" type="matrix" values="0 0 0 0 0 0 0 0 0 0 0 0 0 0 0 0 0 0 127 0" result="hardAlpha"/>
<feOffset dy="4"/>
<feGaussianBlur stdDeviation="2"/>
<feComposite in2="hardAlpha" operator="out"/>
<feColorMatrix type="matrix" values="0 0 0 0 0 0 0 0 0 0 0 0 0 0 0 0 0 0 0.25 0"/>
<feBlend mode="normal" in2="BackgroundImageFix" result="effect1_dropShadow_207_110"/>
<feBlend mode="normal" in="SourceGraphic" in2="effect1_dropShadow_207_110" result="shape"/>
</filter>
<linearGradient id="paint0_linear_207_110" x1="91.7585" y1="5.84879" x2="91.3511" y2="68.4025" gradientUnits="userSpaceOnUse">
<stop stop-color="#A8AB9B"/>
<stop offset="0.401042" stop-color="#6B7C6E" stop-opacity="0.48916"/>
<stop offset="0.84375" stop-color="#262726"/>
</linearGradient>
</defs>
</svg>
