<svg width="48" height="52" viewBox="0 0 48 52" fill="none" xmlns="http://www.w3.org/2000/svg">
<path fill-rule="evenodd" clip-rule="evenodd" d="M28.7702 33.4658C23.4696 38.0649 15.7108 37.7029 10.7972 32.3799C5.52512 26.6685 5.52512 17.4084 10.7972 11.697C16.0693 5.9856 24.617 5.9856 29.8891 11.697C34.8026 17.02 35.1368 25.4255 30.8915 31.1677L41.2028 42.3383C41.7885 42.9729 41.7885 44.0018 41.2028 44.6364C40.617 45.271 39.6672 45.271 39.0814 44.6364L28.7702 33.4658ZM12.9185 30.0818C8.81801 25.6396 8.81801 18.4373 12.9185 13.9951C17.019 9.5529 23.6673 9.5529 27.7678 13.9951C31.8653 18.4341 31.8683 25.629 27.7768 30.072C27.7738 30.0752 27.7707 30.0785 27.7677 30.0817C27.7647 30.085 27.7617 30.0883 27.7587 30.0916C23.6575 34.524 17.016 34.5208 12.9185 30.0818Z" fill="white"/>
</svg>
