<svg width="348" height="74" viewBox="0 0 348 74" fill="none" xmlns="http://www.w3.org/2000/svg">
<path d="M75.992 65.964C75.752 66.036 75.368 66.108 74.84 66.18C74.336 66.252 73.808 66.288 73.256 66.288C72.728 66.288 72.248 66.252 71.816 66.18C71.408 66.108 71.06 65.964 70.772 65.748C70.484 65.532 70.256 65.244 70.088 64.884C69.944 64.5 69.872 64.008 69.872 63.408V52.608C69.872 52.056 69.968 51.588 70.16 51.204C70.376 50.796 70.676 50.436 71.06 50.124C71.444 49.812 71.912 49.536 72.464 49.296C73.04 49.032 73.652 48.804 74.3 48.612C74.948 48.42 75.62 48.276 76.316 48.18C77.012 48.06 77.708 48 78.404 48C79.556 48 80.468 48.228 81.14 48.684C81.812 49.116 82.148 49.836 82.148 50.844C82.148 51.18 82.1 51.516 82.004 51.852C81.908 52.164 81.788 52.452 81.644 52.716C81.14 52.716 80.624 52.74 80.096 52.788C79.568 52.836 79.052 52.908 78.548 53.004C78.044 53.1 77.564 53.208 77.108 53.328C76.676 53.424 76.304 53.544 75.992 53.688V65.964ZM93.2568 66.576C91.8408 66.576 90.5208 66.384 89.2968 66C88.0968 65.592 87.0408 64.992 86.1288 64.2C85.2408 63.408 84.5328 62.412 84.0048 61.212C83.5008 60.012 83.2488 58.608 83.2488 57C83.2488 55.416 83.5008 54.06 84.0048 52.932C84.5328 51.78 85.2168 50.844 86.0568 50.124C86.8968 49.38 87.8568 48.84 88.9368 48.504C90.0168 48.144 91.1208 47.964 92.2488 47.964C93.5208 47.964 94.6728 48.156 95.7048 48.54C96.7608 48.924 97.6608 49.452 98.4048 50.124C99.1728 50.796 99.7608 51.6 100.169 52.536C100.601 53.472 100.817 54.492 100.817 55.596C100.817 56.412 100.589 57.036 100.133 57.468C99.6768 57.9 99.0408 58.176 98.2248 58.296L89.3328 59.628C89.5968 60.42 90.1368 61.02 90.9528 61.428C91.7688 61.812 92.7048 62.004 93.7608 62.004C94.7448 62.004 95.6688 61.884 96.5328 61.644C97.4208 61.38 98.1408 61.08 98.6928 60.744C99.0768 60.984 99.4008 61.32 99.6648 61.752C99.9288 62.184 100.061 62.64 100.061 63.12C100.061 64.2 99.5568 65.004 98.5488 65.532C97.7808 65.94 96.9168 66.216 95.9568 66.36C94.9968 66.504 94.0968 66.576 93.2568 66.576ZM92.2488 52.428C91.6728 52.428 91.1688 52.524 90.7368 52.716C90.3288 52.908 89.9928 53.16 89.7288 53.472C89.4648 53.76 89.2608 54.096 89.1168 54.48C88.9968 54.84 88.9248 55.212 88.9008 55.596L95.0568 54.588C94.9848 54.108 94.7208 53.628 94.2648 53.148C93.8088 52.668 93.1368 52.428 92.2488 52.428ZM103.007 57.252C103.007 55.668 103.247 54.3 103.727 53.148C104.207 51.972 104.867 51 105.707 50.232C106.571 49.464 107.567 48.9 108.695 48.54C109.847 48.156 111.083 47.964 112.403 47.964C112.883 47.964 113.351 48.012 113.807 48.108C114.263 48.18 114.635 48.276 114.923 48.396V42.564C115.163 42.492 115.547 42.42 116.075 42.348C116.603 42.252 117.143 42.204 117.695 42.204C118.223 42.204 118.691 42.24 119.099 42.312C119.531 42.384 119.891 42.528 120.179 42.744C120.467 42.96 120.683 43.26 120.827 43.644C120.971 44.004 121.043 44.484 121.043 45.084V62.148C121.043 63.276 120.515 64.176 119.459 64.848C118.763 65.304 117.863 65.7 116.759 66.036C115.655 66.396 114.383 66.576 112.943 66.576C111.383 66.576 109.979 66.36 108.731 65.928C107.507 65.496 106.463 64.872 105.599 64.056C104.759 63.24 104.111 62.268 103.655 61.14C103.223 59.988 103.007 58.692 103.007 57.252ZM113.231 52.752C111.935 52.752 110.939 53.124 110.243 53.868C109.547 54.612 109.199 55.74 109.199 57.252C109.199 58.74 109.523 59.868 110.171 60.636C110.819 61.38 111.755 61.752 112.979 61.752C113.411 61.752 113.795 61.692 114.131 61.572C114.491 61.428 114.767 61.272 114.959 61.104V53.184C114.479 52.896 113.903 52.752 113.231 52.752ZM142.964 57.252C142.964 58.74 142.736 60.072 142.28 61.248C141.824 62.4 141.176 63.372 140.336 64.164C139.52 64.956 138.536 65.556 137.384 65.964C136.232 66.372 134.948 66.576 133.532 66.576C132.116 66.576 130.832 66.36 129.68 65.928C128.528 65.496 127.532 64.884 126.692 64.092C125.876 63.276 125.24 62.292 124.784 61.14C124.328 59.988 124.1 58.692 124.1 57.252C124.1 55.836 124.328 54.552 124.784 53.4C125.24 52.248 125.876 51.276 126.692 50.484C127.532 49.668 128.528 49.044 129.68 48.612C130.832 48.18 132.116 47.964 133.532 47.964C134.948 47.964 136.232 48.192 137.384 48.648C138.536 49.08 139.52 49.704 140.336 50.52C141.176 51.312 141.824 52.284 142.28 53.436C142.736 54.588 142.964 55.86 142.964 57.252ZM130.364 57.252C130.364 58.716 130.64 59.844 131.192 60.636C131.768 61.404 132.56 61.788 133.568 61.788C134.576 61.788 135.344 61.392 135.872 60.6C136.424 59.808 136.7 58.692 136.7 57.252C136.7 55.812 136.424 54.708 135.872 53.94C135.32 53.148 134.54 52.752 133.532 52.752C132.524 52.752 131.744 53.148 131.192 53.94C130.64 54.708 130.364 55.812 130.364 57.252ZM157.038 54.912C157.038 54.168 156.822 53.628 156.39 53.292C155.982 52.932 155.418 52.752 154.698 52.752C154.218 52.752 153.738 52.812 153.258 52.932C152.802 53.052 152.406 53.232 152.07 53.472V65.964C151.83 66.036 151.446 66.108 150.918 66.18C150.414 66.252 149.886 66.288 149.334 66.288C148.806 66.288 148.326 66.252 147.894 66.18C147.486 66.108 147.138 65.964 146.85 65.748C146.562 65.532 146.334 65.244 146.166 64.884C146.022 64.5 145.95 64.008 145.95 63.408V52.608C145.95 51.96 146.082 51.432 146.346 51.024C146.634 50.616 147.018 50.244 147.498 49.908C148.314 49.332 149.334 48.864 150.558 48.504C151.806 48.144 153.186 47.964 154.698 47.964C157.41 47.964 159.498 48.564 160.962 49.764C162.426 50.94 163.158 52.584 163.158 54.696V65.964C162.918 66.036 162.534 66.108 162.006 66.18C161.502 66.252 160.974 66.288 160.422 66.288C159.894 66.288 159.414 66.252 158.982 66.18C158.574 66.108 158.226 65.964 157.938 65.748C157.65 65.532 157.422 65.244 157.254 64.884C157.11 64.5 157.038 64.008 157.038 63.408V54.912ZM166.182 57.252C166.182 55.668 166.422 54.3 166.902 53.148C167.382 51.972 168.042 51 168.882 50.232C169.746 49.464 170.742 48.9 171.87 48.54C173.022 48.156 174.258 47.964 175.578 47.964C176.058 47.964 176.526 48.012 176.982 48.108C177.438 48.18 177.81 48.276 178.098 48.396V42.564C178.338 42.492 178.722 42.42 179.25 42.348C179.778 42.252 180.318 42.204 180.87 42.204C181.398 42.204 181.866 42.24 182.274 42.312C182.706 42.384 183.066 42.528 183.354 42.744C183.642 42.96 183.858 43.26 184.002 43.644C184.146 44.004 184.218 44.484 184.218 45.084V62.148C184.218 63.276 183.69 64.176 182.634 64.848C181.938 65.304 181.038 65.7 179.934 66.036C178.83 66.396 177.558 66.576 176.118 66.576C174.558 66.576 173.154 66.36 171.906 65.928C170.682 65.496 169.638 64.872 168.774 64.056C167.934 63.24 167.286 62.268 166.83 61.14C166.398 59.988 166.182 58.692 166.182 57.252ZM176.406 52.752C175.11 52.752 174.114 53.124 173.418 53.868C172.722 54.612 172.374 55.74 172.374 57.252C172.374 58.74 172.698 59.868 173.346 60.636C173.994 61.38 174.93 61.752 176.154 61.752C176.586 61.752 176.97 61.692 177.306 61.572C177.666 61.428 177.942 61.272 178.134 61.104V53.184C177.654 52.896 177.078 52.752 176.406 52.752ZM206.14 57.252C206.14 58.74 205.912 60.072 205.456 61.248C205 62.4 204.352 63.372 203.512 64.164C202.696 64.956 201.712 65.556 200.56 65.964C199.408 66.372 198.124 66.576 196.708 66.576C195.292 66.576 194.008 66.36 192.856 65.928C191.704 65.496 190.708 64.884 189.868 64.092C189.052 63.276 188.416 62.292 187.96 61.14C187.504 59.988 187.276 58.692 187.276 57.252C187.276 55.836 187.504 54.552 187.96 53.4C188.416 52.248 189.052 51.276 189.868 50.484C190.708 49.668 191.704 49.044 192.856 48.612C194.008 48.18 195.292 47.964 196.708 47.964C198.124 47.964 199.408 48.192 200.56 48.648C201.712 49.08 202.696 49.704 203.512 50.52C204.352 51.312 205 52.284 205.456 53.436C205.912 54.588 206.14 55.86 206.14 57.252ZM193.54 57.252C193.54 58.716 193.816 59.844 194.368 60.636C194.944 61.404 195.736 61.788 196.744 61.788C197.752 61.788 198.52 61.392 199.048 60.6C199.6 59.808 199.876 58.692 199.876 57.252C199.876 55.812 199.6 54.708 199.048 53.94C198.496 53.148 197.716 52.752 196.708 52.752C195.7 52.752 194.92 53.148 194.368 53.94C193.816 54.708 193.54 55.812 193.54 57.252ZM209.594 47.532C209.594 46.5 209.894 45.684 210.494 45.084C211.094 44.484 211.91 44.184 212.942 44.184H224.822C224.99 44.448 225.134 44.796 225.254 45.228C225.398 45.66 225.47 46.116 225.47 46.596C225.47 47.508 225.266 48.156 224.858 48.54C224.474 48.924 223.958 49.116 223.31 49.116H215.714V52.464H223.814C223.982 52.728 224.126 53.076 224.246 53.508C224.39 53.916 224.462 54.36 224.462 54.84C224.462 55.752 224.27 56.4 223.886 56.784C223.502 57.168 222.986 57.36 222.338 57.36H215.714V61.14H224.966C225.134 61.404 225.278 61.752 225.398 62.184C225.542 62.616 225.614 63.072 225.614 63.552C225.614 64.464 225.41 65.124 225.002 65.532C224.618 65.916 224.102 66.108 223.454 66.108H212.942C211.91 66.108 211.094 65.808 210.494 65.208C209.894 64.608 209.594 63.792 209.594 62.76V47.532ZM243.609 60.78C243.609 62.604 242.925 64.032 241.557 65.064C240.189 66.096 238.173 66.612 235.509 66.612C234.501 66.612 233.565 66.54 232.701 66.396C231.837 66.252 231.093 66.036 230.469 65.748C229.869 65.436 229.389 65.052 229.029 64.596C228.693 64.14 228.525 63.6 228.525 62.976C228.525 62.4 228.645 61.92 228.885 61.536C229.125 61.128 229.413 60.792 229.749 60.528C230.445 60.912 231.237 61.26 232.125 61.572C233.037 61.86 234.081 62.004 235.257 62.004C236.001 62.004 236.565 61.896 236.949 61.68C237.357 61.464 237.561 61.176 237.561 60.816C237.561 60.48 237.417 60.216 237.129 60.024C236.841 59.832 236.361 59.676 235.689 59.556L234.609 59.34C232.521 58.932 230.961 58.296 229.929 57.432C228.921 56.544 228.417 55.284 228.417 53.652C228.417 52.764 228.609 51.96 228.993 51.24C229.377 50.52 229.917 49.92 230.613 49.44C231.309 48.96 232.137 48.588 233.097 48.324C234.081 48.06 235.161 47.928 236.337 47.928C237.225 47.928 238.053 48 238.821 48.144C239.613 48.264 240.297 48.456 240.873 48.72C241.449 48.984 241.905 49.332 242.241 49.764C242.577 50.172 242.745 50.664 242.745 51.24C242.745 51.792 242.637 52.272 242.421 52.68C242.229 53.064 241.977 53.388 241.665 53.652C241.473 53.532 241.185 53.412 240.801 53.292C240.417 53.148 239.997 53.028 239.541 52.932C239.085 52.812 238.617 52.716 238.137 52.644C237.681 52.572 237.261 52.536 236.877 52.536C236.085 52.536 235.473 52.632 235.041 52.824C234.609 52.992 234.393 53.268 234.393 53.652C234.393 53.916 234.513 54.132 234.753 54.3C234.993 54.468 235.449 54.624 236.121 54.768L237.237 55.02C239.541 55.548 241.173 56.28 242.133 57.216C243.117 58.128 243.609 59.316 243.609 60.78ZM254.595 47.964C256.035 47.964 257.367 48.156 258.591 48.54C259.839 48.9 260.907 49.464 261.795 50.232C262.683 51 263.379 51.972 263.883 53.148C264.387 54.3 264.639 55.68 264.639 57.288C264.639 58.824 264.423 60.168 263.991 61.32C263.559 62.472 262.947 63.444 262.155 64.236C261.363 65.004 260.403 65.58 259.275 65.964C258.171 66.348 256.935 66.54 255.567 66.54C254.535 66.54 253.575 66.384 252.687 66.072V72.048C252.447 72.12 252.063 72.192 251.535 72.264C251.007 72.36 250.467 72.408 249.915 72.408C249.387 72.408 248.907 72.372 248.475 72.3C248.067 72.228 247.719 72.084 247.431 71.868C247.143 71.652 246.927 71.352 246.783 70.968C246.639 70.608 246.567 70.128 246.567 69.528V52.248C246.567 51.6 246.699 51.072 246.963 50.664C247.251 50.256 247.635 49.884 248.115 49.548C248.859 49.068 249.783 48.684 250.887 48.396C251.991 48.108 253.227 47.964 254.595 47.964ZM254.667 61.716C257.139 61.716 258.375 60.24 258.375 57.288C258.375 55.752 258.063 54.612 257.439 53.868C256.839 53.124 255.963 52.752 254.811 52.752C254.355 52.752 253.947 52.812 253.587 52.932C253.227 53.028 252.915 53.148 252.651 53.292V61.212C252.939 61.356 253.251 61.476 253.587 61.572C253.923 61.668 254.283 61.716 254.667 61.716ZM285.734 57.252C285.734 58.74 285.506 60.072 285.05 61.248C284.594 62.4 283.946 63.372 283.106 64.164C282.29 64.956 281.306 65.556 280.154 65.964C279.002 66.372 277.718 66.576 276.302 66.576C274.886 66.576 273.602 66.36 272.45 65.928C271.298 65.496 270.302 64.884 269.462 64.092C268.646 63.276 268.01 62.292 267.554 61.14C267.098 59.988 266.87 58.692 266.87 57.252C266.87 55.836 267.098 54.552 267.554 53.4C268.01 52.248 268.646 51.276 269.462 50.484C270.302 49.668 271.298 49.044 272.45 48.612C273.602 48.18 274.886 47.964 276.302 47.964C277.718 47.964 279.002 48.192 280.154 48.648C281.306 49.08 282.29 49.704 283.106 50.52C283.946 51.312 284.594 52.284 285.05 53.436C285.506 54.588 285.734 55.86 285.734 57.252ZM273.134 57.252C273.134 58.716 273.41 59.844 273.962 60.636C274.538 61.404 275.33 61.788 276.338 61.788C277.346 61.788 278.114 61.392 278.642 60.6C279.194 59.808 279.47 58.692 279.47 57.252C279.47 55.812 279.194 54.708 278.642 53.94C278.09 53.148 277.31 52.752 276.302 52.752C275.294 52.752 274.514 53.148 273.962 53.94C273.41 54.708 273.134 55.812 273.134 57.252ZM294.84 65.964C294.6 66.036 294.216 66.108 293.688 66.18C293.184 66.252 292.656 66.288 292.104 66.288C291.576 66.288 291.096 66.252 290.664 66.18C290.256 66.108 289.908 65.964 289.62 65.748C289.332 65.532 289.104 65.244 288.936 64.884C288.792 64.5 288.72 64.008 288.72 63.408V52.608C288.72 52.056 288.816 51.588 289.008 51.204C289.224 50.796 289.524 50.436 289.908 50.124C290.292 49.812 290.76 49.536 291.312 49.296C291.888 49.032 292.5 48.804 293.148 48.612C293.796 48.42 294.468 48.276 295.164 48.18C295.86 48.06 296.556 48 297.252 48C298.404 48 299.316 48.228 299.988 48.684C300.66 49.116 300.996 49.836 300.996 50.844C300.996 51.18 300.948 51.516 300.852 51.852C300.756 52.164 300.636 52.452 300.492 52.716C299.988 52.716 299.472 52.74 298.944 52.788C298.416 52.836 297.9 52.908 297.396 53.004C296.892 53.1 296.412 53.208 295.956 53.328C295.524 53.424 295.152 53.544 294.84 53.688V65.964ZM309.64 59.988C309.64 60.612 309.832 61.056 310.216 61.32C310.624 61.584 311.188 61.716 311.908 61.716C312.268 61.716 312.64 61.692 313.024 61.644C313.408 61.572 313.744 61.488 314.032 61.392C314.248 61.656 314.428 61.956 314.572 62.292C314.74 62.604 314.824 62.988 314.824 63.444C314.824 64.356 314.476 65.1 313.78 65.676C313.108 66.252 311.908 66.54 310.18 66.54C308.068 66.54 306.436 66.06 305.284 65.1C304.156 64.14 303.592 62.58 303.592 60.42V45.012C303.856 44.94 304.228 44.868 304.708 44.796C305.212 44.7 305.74 44.652 306.292 44.652C307.348 44.652 308.164 44.844 308.74 45.228C309.34 45.588 309.64 46.368 309.64 47.568V49.872H314.356C314.5 50.136 314.632 50.472 314.752 50.88C314.896 51.264 314.968 51.696 314.968 52.176C314.968 53.016 314.776 53.628 314.392 54.012C314.032 54.372 313.54 54.552 312.916 54.552H309.64V59.988ZM326.976 66.576C325.56 66.576 324.24 66.384 323.016 66C321.816 65.592 320.76 64.992 319.848 64.2C318.96 63.408 318.252 62.412 317.724 61.212C317.22 60.012 316.968 58.608 316.968 57C316.968 55.416 317.22 54.06 317.724 52.932C318.252 51.78 318.936 50.844 319.776 50.124C320.616 49.38 321.576 48.84 322.656 48.504C323.736 48.144 324.84 47.964 325.968 47.964C327.24 47.964 328.392 48.156 329.424 48.54C330.48 48.924 331.38 49.452 332.124 50.124C332.892 50.796 333.48 51.6 333.888 52.536C334.32 53.472 334.536 54.492 334.536 55.596C334.536 56.412 334.308 57.036 333.852 57.468C333.396 57.9 332.76 58.176 331.944 58.296L323.052 59.628C323.316 60.42 323.856 61.02 324.672 61.428C325.488 61.812 326.424 62.004 327.48 62.004C328.464 62.004 329.388 61.884 330.252 61.644C331.14 61.38 331.86 61.08 332.412 60.744C332.796 60.984 333.12 61.32 333.384 61.752C333.648 62.184 333.78 62.64 333.78 63.12C333.78 64.2 333.276 65.004 332.268 65.532C331.5 65.94 330.636 66.216 329.676 66.36C328.716 66.504 327.816 66.576 326.976 66.576ZM325.968 52.428C325.392 52.428 324.888 52.524 324.456 52.716C324.048 52.908 323.712 53.16 323.448 53.472C323.184 53.76 322.98 54.096 322.836 54.48C322.716 54.84 322.644 55.212 322.62 55.596L328.776 54.588C328.704 54.108 328.44 53.628 327.984 53.148C327.528 52.668 326.856 52.428 325.968 52.428Z" fill="white"/>
<g filter="url(#filter0_i_1_46)">
<g filter="url(#filter1_i_1_46)">
<ellipse cx="37.2007" cy="37.0401" rx="31.3172" ry="31.1915" transform="rotate(-0.062665 37.2007 37.0401)" fill="url(#paint0_linear_1_46)"/>
</g>
<g filter="url(#filter2_d_1_46)">
<path d="M37.9414 14.4823L37.9212 14.666L37.8965 14.8892L37.8548 15.2277L37.8152 15.5493L37.7881 15.7694L37.7836 15.8061L37.765 15.9567L37.549 17.7103L37.4046 18.8824L37.1918 20.6104L37.0252 21.963L36.8284 23.5602L36.6379 25.1071L36.4464 26.6617L36.2522 28.2375L36.0617 29.7847L35.8698 31.3419L35.677 32.9073L35.4865 34.4541L35.4103 35.2587L35.3342 36.0633C35.2773 36.3821 34.8674 36.4818 34.669 36.225L30.5191 30.855C30.4123 30.7168 30.2124 30.6928 30.0759 30.8018L29.9255 30.922C29.8604 30.974 29.8041 31.0361 29.7589 31.1059C29.7136 31.1758 29.6574 31.2379 29.5923 31.2899L29.5361 31.3347C29.4735 31.3848 29.4159 31.4409 29.3643 31.5022L29.181 31.7202L28.8455 32.1916L28.299 33.0352L27.7401 33.9903L27.5811 34.3345C27.2409 35.0712 26.9605 35.834 26.7426 36.6155C26.5234 37.402 26.3683 38.205 26.2787 39.0166L26.1794 39.9171L26.1896 40.9319C26.2017 42.1374 26.3126 43.34 26.5211 44.5277L27.1835 46.7456L27.2842 46.9935C27.4249 47.3398 27.5914 47.6752 27.7824 47.9968L28.1566 48.7152L28.5931 49.384L29.7275 50.9196L30.8489 52.0586L32.198 53.1366C32.8256 53.6381 33.4956 54.0842 34.2007 54.4701L34.333 54.5425C34.9982 54.9066 35.6958 55.2084 36.417 55.4439C37.0792 55.6602 37.7587 55.8199 38.4481 55.9212L38.9182 55.9902L39.7646 56.0264L40.6285 55.9911C41.3042 55.9635 41.9768 55.8836 42.6401 55.7521C43.4422 55.5931 44.2275 55.3593 44.9855 55.0538L46.1596 54.5806C47.7243 53.737 49.2224 52.7761 50.6407 51.7062L50.7979 51.5876L52.5631 49.9741L53.0887 49.3623C54.0377 48.2578 54.9044 47.0856 55.6817 45.855L56.4018 44.4658L56.9354 43.2257L57.3939 41.6385L57.8142 39.3697L57.9982 37.1879L57.9581 34.9816L57.6435 32.1807L57.1929 30.0989L56.3305 27.1251L55.2194 24.35L54.2961 22.4423L52.9863 19.9277L51.5398 17.624L50.5051 16.2122L50.0779 15.6395C49.8978 15.398 50.185 15.0868 50.4417 15.2455L51.9737 16.26L53.4435 17.3241L55.3122 18.8836L56.795 20.3444L58.191 22.078L59.5501 24.1463L60.5731 26.1778L61.3345 28.0114L62.0344 30.4028L62.5731 33.2282L62.775 35.5086L62.7652 37.653L62.5566 40.0579L62.3222 41.6696L61.8397 43.9881L61.3067 45.7365L60.2648 48.5019L59.2468 50.5359L58.2657 52.2353L57.4459 53.5006L56.3153 55.0142L55.0727 56.5156L54.1156 57.4836L52.2882 59.1468L50.3857 60.463L50.1763 60.5853C48.7426 61.4219 47.2496 62.1535 45.7093 62.7743L43.4824 63.434L41.6784 63.8577L40.123 64.0828L38.4679 64.184L36.3648 64.2362L34.7965 64.0646L32.7302 63.782L30.8505 63.3505L29.2071 62.832L27.2523 62.0535L25.3719 61.1138L23.2047 59.6911L21.1741 58.0574L19.33 56.2748L17.4354 53.9221L16.4253 52.2872L15.5143 50.2679L14.9271 48.3969L14.5387 46.2655L14.3496 44.3816L14.3465 41.8406L14.6788 38.8282L15.2973 35.7906L15.9416 33.5463L16.7479 31.3761L17.6661 29.2182L18.5352 27.5066L19.4417 25.9685L19.9573 25.1727C19.9758 25.1442 19.9739 25.1071 19.9525 25.0806C19.9433 25.0691 19.9311 25.0605 19.9172 25.0556L18.0833 24.4084L12.7822 22.5632C12.6184 22.5062 12.5814 22.292 12.7167 22.1839L12.7788 22.1343L13.587 21.4887L14.8801 20.5575L16.2853 19.6385L17.5661 18.8188L19.8545 17.6013L22.4789 16.4205L25.365 15.4377L27.6417 14.8399L30.068 14.4279L32.0216 14.1899L32.9922 14.1267L33.3905 14.1139L33.8741 14.1345L34.1247 14.1377L34.3488 14.1622L34.6529 14.1524C34.7156 14.1504 34.7783 14.1528 34.8406 14.1596C34.9274 14.1691 35.0148 14.17 35.1017 14.1624L35.1142 14.1613C35.2093 14.1529 35.3051 14.154 35.4001 14.1644L35.4813 14.1732L35.7053 14.1978L36.1534 14.2468L36.5309 14.2505L37.1118 14.2952L37.4478 14.3319L37.8563 14.3766C37.8817 14.3794 37.9049 14.3921 37.9208 14.4119C37.9368 14.4317 37.9442 14.4571 37.9414 14.4823Z" fill="#F9FEF9"/>
<path d="M33.3905 14.1139L32.9922 14.1267L32.0216 14.1899L30.068 14.4279L27.6417 14.8399L25.365 15.4377L22.4789 16.4205L19.8545 17.6013L17.5661 18.8188L16.2853 19.6385L14.8801 20.5575L13.587 21.4887L12.7788 22.1343L12.7167 22.1839V22.1839C12.5814 22.292 12.6184 22.5062 12.7822 22.5632L18.0833 24.4084L19.9172 25.0556C19.9311 25.0605 19.9433 25.0691 19.9525 25.0806V25.0806C19.9739 25.1071 19.9758 25.1442 19.9573 25.1727L19.4417 25.9685L18.5352 27.5066L17.6661 29.2182L16.7479 31.3761L15.9416 33.5463L15.2973 35.7906L14.6788 38.8282L14.3465 41.8406L14.3496 44.3816L14.5387 46.2655L14.9271 48.3969L15.5143 50.2679L16.4253 52.2872L17.4354 53.9221L19.33 56.2748L21.1741 58.0574L23.2047 59.6911L25.3719 61.1138L27.2523 62.0535L29.2071 62.832L30.8505 63.3505L32.7302 63.782L34.7965 64.0646L36.3648 64.2362L38.4679 64.184L40.123 64.0828L41.6784 63.8577L43.4824 63.434L45.7093 62.7743V62.7743C47.2496 62.1535 48.7426 61.4219 50.1763 60.5853L50.3857 60.463L52.2882 59.1468L54.1156 57.4836L55.0727 56.5156L56.3153 55.0142L57.4459 53.5006L58.2657 52.2353L59.2468 50.5359L60.2648 48.5019L61.3067 45.7365L61.8397 43.9881L62.3222 41.6696L62.5566 40.0579L62.7652 37.653L62.775 35.5087L62.5731 33.2282L62.0344 30.4028L61.3345 28.0114L60.5731 26.1778L59.5501 24.1463L58.191 22.078L56.795 20.3444L55.3122 18.8836L53.4435 17.3241L51.9737 16.26L50.4417 15.2455V15.2455C50.185 15.0868 49.8978 15.398 50.0779 15.6395L50.5051 16.2122L51.5398 17.624L52.9863 19.9277L54.2961 22.4423L55.2194 24.35L56.3305 27.1251L57.1929 30.0989L57.6435 32.1807L57.9581 34.9816L57.9982 37.1879L57.8142 39.3697L57.3939 41.6385L56.9354 43.2257L56.4018 44.4658L55.6817 45.855V45.855C54.9044 47.0856 54.0377 48.2578 53.0887 49.3623L52.5631 49.9741L50.7979 51.5876L50.6407 51.7062C49.2224 52.7761 47.7243 53.737 46.1596 54.5806V54.5806L44.9855 55.0538C44.2275 55.3593 43.4422 55.5931 42.6401 55.7521V55.7521C41.9768 55.8836 41.3042 55.9635 40.6285 55.9911L39.7646 56.0264L38.9182 55.9902L38.4481 55.9212C37.7587 55.8199 37.0792 55.6602 36.417 55.4439V55.4439C35.6958 55.2084 34.9982 54.9066 34.333 54.5425L34.2007 54.4701C33.4956 54.0842 32.8256 53.638 32.198 53.1366L30.8489 52.0586L29.7275 50.9196L28.5931 49.384L28.1566 48.7152L27.7824 47.9968V47.9968C27.5914 47.6752 27.4249 47.3398 27.2842 46.9935L27.1835 46.7456L26.5211 44.5277V44.5277C26.3126 43.34 26.2017 42.1374 26.1896 40.9319L26.1794 39.9171L26.2787 39.0166C26.3683 38.205 26.5234 37.402 26.7426 36.6155V36.6155C26.9605 35.834 27.2409 35.0712 27.5812 34.3345L27.7401 33.9903L28.299 33.0352L28.8455 32.1916L29.181 31.7202L29.3643 31.5022C29.4159 31.4409 29.4735 31.3848 29.5361 31.3347L29.5923 31.2899C29.6574 31.2379 29.7136 31.1758 29.7589 31.1059V31.1059C29.8041 31.0361 29.8604 30.974 29.9255 30.922L30.0759 30.8018V30.8018C30.2124 30.6928 30.4123 30.7168 30.5191 30.855L34.669 36.225C34.8674 36.4818 35.2773 36.3821 35.3342 36.0633V36.0633L35.4103 35.2587L35.4865 34.4541L35.677 32.9073L35.8698 31.3419L36.0617 29.7847L36.2522 28.2375L36.4464 26.6617L36.6379 25.1071L36.8284 23.5602L37.0252 21.963L37.1918 20.6104M33.3905 14.1139L33.8741 14.1345L34.1247 14.1377L34.3488 14.1622M33.3905 14.1139L34.3488 14.1622M34.3488 14.1622L34.6529 14.1524C34.7156 14.1504 34.7783 14.1528 34.8406 14.1596V14.1596C34.9274 14.1691 35.0148 14.17 35.1017 14.1624L35.1142 14.1613C35.2093 14.1529 35.3051 14.154 35.4001 14.1644L35.4813 14.1732L35.7053 14.1978L36.1534 14.2468L36.5309 14.2505L37.1118 14.2952L37.4478 14.3319L37.8563 14.3766C37.8817 14.3794 37.9049 14.3921 37.9208 14.4119V14.4119C37.9368 14.4317 37.9442 14.4571 37.9414 14.4823L37.9212 14.666L37.8965 14.8892L37.8548 15.2277L37.8152 15.5493L37.7881 15.7694L37.7836 15.8061L37.765 15.9567L37.549 17.7103L37.4046 18.8824L37.1918 20.6104M37.2314 20.4058L37.1918 20.6104" stroke="#FEFEFE"/>
</g>
</g>
<defs>
<filter id="filter0_i_1_46" x="5.88348" y="5.84863" width="64.6344" height="66.3829" filterUnits="userSpaceOnUse" color-interpolation-filters="sRGB">
<feFlood flood-opacity="0" result="BackgroundImageFix"/>
<feBlend mode="normal" in="SourceGraphic" in2="BackgroundImageFix" result="shape"/>
<feColorMatrix in="SourceAlpha" type="matrix" values="0 0 0 0 0 0 0 0 0 0 0 0 0 0 0 0 0 0 127 0" result="hardAlpha"/>
<feOffset dx="2" dy="4"/>
<feGaussianBlur stdDeviation="2"/>
<feComposite in2="hardAlpha" operator="arithmetic" k2="-1" k3="1"/>
<feColorMatrix type="matrix" values="0 0 0 0 0 0 0 0 0 0 0 0 0 0 0 0 0 0 0.25 0"/>
<feBlend mode="normal" in2="shape" result="effect1_innerShadow_1_46"/>
</filter>
<filter id="filter1_i_1_46" x="5.88348" y="5.84863" width="62.6344" height="66.3829" filterUnits="userSpaceOnUse" color-interpolation-filters="sRGB">
<feFlood flood-opacity="0" result="BackgroundImageFix"/>
<feBlend mode="normal" in="SourceGraphic" in2="BackgroundImageFix" result="shape"/>
<feColorMatrix in="SourceAlpha" type="matrix" values="0 0 0 0 0 0 0 0 0 0 0 0 0 0 0 0 0 0 127 0" result="hardAlpha"/>
<feOffset dy="4"/>
<feGaussianBlur stdDeviation="2"/>
<feComposite in2="hardAlpha" operator="arithmetic" k2="-1" k3="1"/>
<feColorMatrix type="matrix" values="0 0 0 0 0 0 0 0 0 0 0 0 0 0 0 0 0 0 0.25 0"/>
<feBlend mode="normal" in2="shape" result="effect1_innerShadow_1_46"/>
</filter>
<filter id="filter2_d_1_46" x="8.13292" y="13.6145" width="59.1432" height="59.1213" filterUnits="userSpaceOnUse" color-interpolation-filters="sRGB">
<feFlood flood-opacity="0" result="BackgroundImageFix"/>
<feColorMatrix in="SourceAlpha" type="matrix" values="0 0 0 0 0 0 0 0 0 0 0 0 0 0 0 0 0 0 127 0" result="hardAlpha"/>
<feOffset dy="4"/>
<feGaussianBlur stdDeviation="2"/>
<feComposite in2="hardAlpha" operator="out"/>
<feColorMatrix type="matrix" values="0 0 0 0 0 0 0 0 0 0 0 0 0 0 0 0 0 0 0.25 0"/>
<feBlend mode="normal" in2="BackgroundImageFix" result="effect1_dropShadow_1_46"/>
<feBlend mode="normal" in="SourceGraphic" in2="effect1_dropShadow_1_46" result="shape"/>
</filter>
<linearGradient id="paint0_linear_1_46" x1="37.7585" y1="5.84866" x2="37.3511" y2="68.4024" gradientUnits="userSpaceOnUse">
<stop stop-color="#F7F4E8"/>
<stop offset="0.401042" stop-color="#F28A35"/>
<stop offset="0.84375" stop-color="#C44D39"/>
</linearGradient>
</defs>
</svg>
